<?xml version="1.0" encoding="utf-8"?>
<!-- Generator: Adobe Illustrator 27.5.0, SVG Export Plug-In . SVG Version: 6.00 Build 0)  -->
<svg version="1.1" id="Layer_1" xmlns="http://www.w3.org/2000/svg" xmlns:xlink="http://www.w3.org/1999/xlink" x="0px" y="0px"
	 viewBox="0 0 205 205" style="enable-background:new 0 0 205 205;" xml:space="preserve">
<style type="text/css">
	.st0{fill:#2A4EA1;}
	.st1{fill:#D8B161;}
	.st2{fill:#8E703C;}
</style>
<g>
	<path class="st0" d="M108.96,13.95c-12.84,0-24.65,2.18-35.43,6.54c-11.3,4.36-20.97,10.28-29.01,17.76
		c-8.39,7.63-14.89,16.43-19.51,26.4c-4.8,10.12-7.19,20.87-7.19,32.24c0,7.73,1.1,15.17,3.31,22.32L47.6,91.53
		c1.25-13.02,7.15-24.47,17.71-34.36c8.53-7.76,18.35-12.75,29.48-14.99l26.31-27.51C117.13,14.19,113.09,13.95,108.96,13.95z
		 M125.66,151c-5.27,1.31-10.84,1.96-16.7,1.96c-17.12,0-31.67-5.45-43.65-16.35c-1.58-1.48-3.06-3-4.43-4.55l-27.21,11.52
		c3.2,4.31,6.82,8.28,10.85,11.95c8.04,7.48,17.71,13.4,29.01,17.76c10.78,4.36,22.59,6.54,35.43,6.54c10.26,0,20.06-1.47,29.4-4.42
		L125.66,151z M192.9,64.65c-4.45-9.5-10.95-18.3-19.51-26.4c-4.97-4.52-10.47-8.48-16.5-11.86l2.9,38.8
		c7.19,9.28,10.78,19.85,10.78,31.7c0,9.22-2.17,17.65-6.52,25.32l2.89,38.65c2.24-1.68,4.39-3.45,6.45-5.33
		c8.39-7.94,14.89-16.74,19.51-26.4c4.79-10.59,7.19-21.34,7.19-32.24C200.09,85.99,197.69,75.24,192.9,64.65z"/>
	<g>
		<g>
			<g>
				<g>
					<polygon class="st1" points="146.9,0.3 4.91,147.27 23.43,139.56 					"/>
				</g>
				<g>
					<polygon class="st1" points="146.9,0.3 33.43,135.33 53.15,126.85 					"/>
				</g>
				<g>
					<polygon class="st1" points="146.9,0.3 61.17,123.78 80.94,115.29 					"/>
				</g>
				<g>
					<polygon class="st1" points="109.51,103.01 90.67,111.11 146.9,0.3 					"/>
				</g>
			</g>
		</g>
		<g>
			<g>
				<g>
					<polygon class="st2" points="162.25,204.7 147.25,0.69 140.79,19.11 					"/>
				</g>
				<g>
					<polygon class="st2" points="162.25,204.7 137.93,27.29 130.06,48.99 					"/>
				</g>
				<g>
					<polygon class="st2" points="161.98,204.27 127.89,54.89 120.98,74.24 					"/>
				</g>
				<g>
					<polygon class="st2" points="110.58,103.25 117.97,82.77 162.38,204.69 					"/>
				</g>
			</g>
		</g>
	</g>
</g>
</svg>
